<svg width="100" height="100" viewBox="0 0 100 100" fill="none" xmlns="http://www.w3.org/2000/svg">
<circle cx="50" cy="50" r="50" fill="#D9EEE1"/>
<path d="M79.0195 43.2305C78.0625 38.9922 76.0117 35.8477 71.7734 35.8477H66.3047V42.2734C66.3047 47.332 62.0664 51.5703 57.1445 51.5703H42.5156C38.5508 51.5703 35.2695 54.9883 35.2695 58.9531V72.8984C35.2695 76.8633 38.6875 79.1875 42.5156 80.2812C47.1641 81.6484 51.6758 81.9219 57.1445 80.2812C60.8359 79.3242 64.3906 77.1367 64.3906 72.8984V67.293H49.8984V65.5156H71.7734C76.0117 65.5156 77.6523 62.5078 79.0195 58.1328C80.6602 53.4844 80.5234 49.1094 79.0195 43.2305ZM58.1016 70.9844C59.6055 70.9844 60.8359 72.3516 60.8359 73.8555C60.8359 75.3594 59.6055 76.5898 58.1016 76.5898C56.5977 76.5898 55.3672 75.3594 55.3672 73.8555C55.3672 72.2148 56.5977 70.9844 58.1016 70.9844ZM41.832 49.793H56.4609C60.5625 49.793 63.8438 46.375 63.8438 42.2734V28.3281C63.8438 24.3633 60.4258 21.4922 56.4609 20.8086C51.5391 19.9883 46.207 19.9883 41.832 20.8086C35.6797 21.9023 34.5859 24.2266 34.5859 28.3281V33.9336H49.2148V35.8477H29.1172C24.8789 35.8477 21.1875 38.3086 19.957 43.2305C18.5898 48.8359 18.5898 52.2539 19.957 58.1328C21.0508 62.3711 23.5117 65.5156 27.75 65.5156H32.8086V58.8164C32.8086 54.0312 36.9102 49.793 41.832 49.793ZM41.0117 30.2422C39.5078 30.2422 38.2773 29.0117 38.2773 27.5078C38.2773 25.8672 39.5078 24.6367 41.0117 24.6367C42.5156 24.6367 43.7461 25.8672 43.7461 27.5078C43.7461 29.0117 42.5156 30.2422 41.0117 30.2422Z" fill="#282A35"/>
</svg>
